<svg width="180" height="180" viewBox="0 0 180 180" fill="none" xmlns="http://www.w3.org/2000/svg">
<rect width="180" height="180" rx="22.5" fill="#121212"/>
<path d="M37.762 133H26.69V44.872H37.762V133ZM38.402 85.96L73.09 44.872H85.89L51.458 85.256L88.322 133H74.498L38.402 85.96ZM153.552 44.872V103.752C153.552 107.421 153.061 111.091 152.08 114.76C151.141 118.387 149.52 121.693 147.216 124.68C144.955 127.624 141.883 129.992 138 131.784C134.117 133.576 129.275 134.472 123.472 134.472C119.163 134.472 114.917 133.789 110.736 132.424C106.597 131.059 102.779 129.075 99.28 126.472L104.208 119.112C108.048 121.501 111.547 123.123 114.704 123.976C117.861 124.787 120.741 125.192 123.344 125.192C129.488 125.192 134.203 123.229 137.488 119.304C140.816 115.379 142.48 109.981 142.48 103.112V53.96H116.368V44.872H153.552Z" fill="#F5F5F5"/>
</svg>
